o Circle.001_Circle.003
v 0.000000 0.000000 -1.000000
v 0.000000 -0.000000 1.000000
v 0.000000 0.000000 -1.000000
v -0.309017 0.000000 -0.951057
v -0.587785 0.000000 -0.809017
v -0.809017 0.000000 -0.587785
v -0.951057 0.000000 -0.309017
v -1.000000 0.000000 0.000000
v -0.951056 0.000000 0.309017
v -0.809017 0.000000 0.587785
v -0.587785 0.000000 0.809017
v -0.309017 0.000000 0.951057
v 0.000000 0.000000 1.000000
v 0.309017 0.000000 0.951056
v 0.587786 0.000000 0.809017
v 0.809017 0.000000 0.587785
v 0.951057 0.000000 0.309016
v 1.000000 0.000000 -0.000001
v 0.951056 0.000000 -0.309018
v 0.809016 0.000000 -0.587786
v 0.587784 0.000000 -0.809018
v 0.309016 0.000000 -0.951057
v 0.000000 20.000000 -1.000000
v -0.309017 20.000000 -0.951057
v -0.587785 20.000000 -0.809017
v -0.809017 20.000000 -0.587785
v -0.951057 20.000000 -0.309017
v -1.000000 20.000000 0.000000
v -0.951056 20.000000 0.309017
v -0.809017 20.000000 0.587785
v -0.587785 20.000000 0.809017
v -0.309017 20.000000 0.951057
v 0.000000 20.000000 1.000000
v 0.309017 20.000000 0.951056
v 0.587786 20.000000 0.809017
v 0.809017 20.000000 0.587785
v 0.951057 20.000000 0.309016
v 1.000000 20.000000 -0.000001
v 0.951056 20.000000 -0.309018
v 0.809016 20.000000 -0.587786
v 0.587784 20.000000 -0.809018
v 0.309016 20.000000 -0.951057
v 0.000000 -20.000000 -1.000000
v -0.309017 -20.000000 -0.951057
v -0.587785 -20.000000 -0.809017
v -0.809017 -20.000000 -0.587785
v -0.951057 -20.000000 -0.309017
v -1.000000 -20.000000 0.000000
v -0.951056 -20.000000 0.309017
v -0.809017 -20.000000 0.587785
v -0.587785 -20.000000 0.809017
v -0.309017 -20.000000 0.951057
v 0.000000 -20.000000 1.000000
v 0.309017 -20.000000 0.951056
v 0.587786 -20.000000 0.809017
v 0.809017 -20.000000 0.587785
v 0.951057 -20.000000 0.309016
v 1.000000 -20.000000 -0.000001
v 0.951056 -20.000000 -0.309018
v 0.809016 -20.000000 -0.587786
v 0.587784 -20.000000 -0.809018
v 0.309016 -20.000000 -0.951057
v -0.587785 -4.000000 0.809017
v -0.587785 -8.000000 0.809017
v -0.587785 -12.000000 0.809017
v -0.587785 -16.000000 0.809017
v -0.809017 -16.000000 0.587785
v -0.809017 -12.000000 0.587785
v -0.809017 -8.000000 0.587785
v -0.809017 -4.000000 0.587785
v -0.309017 -4.000000 -0.951057
v -0.309017 -8.000000 -0.951057
v -0.309017 -12.000000 -0.951057
v -0.309017 -16.000000 -0.951057
v 0.000000 -16.000000 -1.000000
v 0.000000 -12.000000 -1.000000
v 0.000000 -8.000000 -1.000000
v 0.000000 -4.000000 -1.000000
v 0.951056 -4.000000 -0.309018
v 0.951056 -8.000000 -0.309018
v 0.951056 -12.000000 -0.309018
v 0.951056 -16.000000 -0.309018
v 1.000000 -16.000000 -0.000001
v 1.000000 -12.000000 -0.000001
v 1.000000 -8.000000 -0.000001
v 1.000000 -4.000000 -0.000001
v -0.309017 -4.000000 0.951057
v -0.309017 -8.000000 0.951057
v -0.309017 -12.000000 0.951057
v -0.309017 -16.000000 0.951057
v -0.587785 -4.000000 -0.809017
v -0.587785 -8.000000 -0.809017
v -0.587785 -12.000000 -0.809017
v -0.587785 -16.000000 -0.809017
v 0.809016 -4.000000 -0.587786
v 0.809016 -8.000000 -0.587786
v 0.809016 -12.000000 -0.587786
v 0.809016 -16.000000 -0.587786
v 0.000000 -4.000000 1.000000
v 0.000000 -8.000000 1.000000
v 0.000000 -12.000000 1.000000
v 0.000000 -16.000000 1.000000
v -0.809017 -4.000000 -0.587785
v -0.809017 -8.000000 -0.587785
v -0.809017 -12.000000 -0.587785
v -0.809017 -16.000000 -0.587785
v 0.587784 -4.000000 -0.809018
v 0.587784 -8.000000 -0.809018
v 0.587784 -12.000000 -0.809018
v 0.587784 -16.000000 -0.809018
v 0.309017 -4.000000 0.951056
v 0.309017 -8.000000 0.951056
v 0.309017 -12.000000 0.951056
v 0.309017 -16.000000 0.951056
v -0.951057 -4.000000 -0.309017
v -0.951057 -8.000000 -0.309017
v -0.951057 -12.000000 -0.309017
v -0.951057 -16.000000 -0.309017
v 0.309016 -4.000000 -0.951057
v 0.309016 -8.000000 -0.951057
v 0.309016 -12.000000 -0.951057
v 0.309016 -16.000000 -0.951057
v 0.587786 -4.000000 0.809017
v 0.587786 -8.000000 0.809017
v 0.587786 -12.000000 0.809017
v 0.587786 -16.000000 0.809017
v -1.000000 -4.000000 0.000000
v -1.000000 -8.000000 0.000000
v -1.000000 -12.000000 0.000000
v -1.000000 -16.000000 0.000000
v 0.809017 -4.000000 0.587785
v 0.809017 -8.000000 0.587785
v 0.809017 -12.000000 0.587785
v 0.809017 -16.000000 0.587785
v -0.951056 -4.000000 0.309017
v -0.951056 -8.000000 0.309017
v -0.951056 -12.000000 0.309017
v -0.951056 -16.000000 0.309017
v 0.951057 -4.000000 0.309016
v 0.951057 -8.000000 0.309016
v 0.951057 -12.000000 0.309016
v 0.951057 -16.000000 0.309016
v -0.000000 -4.000000 -0.000000
v -0.000000 -8.000000 -0.000000
v -0.000000 -12.000000 -0.000000
v -0.000000 -16.000000 -0.000000
v 0.000000 20.000000 -2.500000
v -0.772542 20.000000 -2.377641
v -1.469463 20.000000 -2.022542
v -2.022542 20.000000 -1.469463
v -2.377641 20.000000 -0.772542
v -2.500000 20.000000 0.000001
v -2.377641 20.000000 0.772543
v -2.022542 20.000000 1.469463
v -1.469463 20.000000 2.022543
v -0.772542 20.000000 2.377642
v 0.000001 20.000000 2.500000
v 0.772544 20.000000 2.377641
v 1.469464 20.000000 2.022542
v 2.022544 20.000000 1.469462
v 2.377642 20.000000 0.772541
v 2.500000 20.000000 -0.000002
v 2.377641 20.000000 -0.772545
v 2.022541 20.000000 -1.469465
v 1.469461 20.000000 -2.022544
v 0.772539 20.000000 -2.377642
v 0.000000 24.000000 -0.000000
v 0.000000 -20.000000 -2.500000
v -0.772542 -20.000000 -2.377641
v -1.469463 -20.000000 -2.022542
v -2.022542 -20.000000 -1.469463
v -2.377641 -20.000000 -0.772542
v -2.500000 -20.000000 0.000001
v -2.377641 -20.000000 0.772543
v -2.022542 -20.000000 1.469463
v -1.469463 -20.000000 2.022543
v -0.772542 -20.000000 2.377642
v 0.000001 -20.000000 2.500000
v 0.772544 -20.000000 2.377641
v 1.469464 -20.000000 2.022542
v 2.022544 -20.000000 1.469462
v 2.377642 -20.000000 0.772541
v 2.500000 -20.000000 -0.000002
v 2.377641 -20.000000 -0.772545
v 2.022541 -20.000000 -1.469465
v 1.469461 -20.000000 -2.022544
v 0.772539 -20.000000 -2.377642
v 0.000000 -24.000000 -0.000000
v -1.000000 -0.000000 -0.000000
v 1.000000 0.000001 0.000000
vt 0.000000 0.000000
vt 0.000000 0.000000
vt 0.000000 0.000000
vt 0.000000 0.000000
vt 0.000000 0.000000
vt 0.000000 0.000000
vt 0.000000 0.000000
vt 0.000000 0.000000
vt 0.000000 0.000000
vt 0.000000 0.000000
vt 0.000000 0.000000
vt 0.000000 0.000000
vt 0.000000 0.000000
vt 0.000000 0.000000
vt 0.000000 0.000000
vt 0.000000 0.000000
vt 0.000000 0.000000
vt 0.000000 0.000000
vt 0.000000 0.000000
vt 0.000000 0.000000
vt 0.000000 0.000000
vt 0.000000 0.000000
vt 0.000000 0.000000
vt 0.000000 0.000000
vt 0.000000 0.000000
vt 0.000000 0.000000
vt 0.000000 0.000000
vt 0.000000 0.000000
vt 0.000000 0.000000
vt 0.000000 0.000000
vt 0.000000 0.000000
vt 0.000000 0.000000
vt 0.000000 0.000000
vt 0.000000 0.000000
vt 0.000000 0.000000
vt 0.000000 0.000000
vt 0.000000 0.000000
vt 0.000000 0.000000
vt 0.000000 0.000000
vt 0.000000 0.000000
vt 0.000000 0.000000
vt 0.000000 0.000000
vt 0.000000 0.000000
vt 0.000000 0.000000
vt 0.000000 0.000000
vt 0.000000 0.000000
vt 0.000000 0.000000
vt 0.000000 0.000000
vt 0.000000 0.000000
vt 0.000000 0.000000
vt 0.000000 0.000000
vt 0.000000 0.000000
vt 0.000000 0.000000
vt 0.000000 0.000000
vt 0.000000 0.000000
vt 0.000000 0.000000
vt 0.000000 0.000000
vt 0.000000 0.000000
vt 0.000000 0.000000
vt 0.000000 0.000000
vt 0.000000 0.000000
vt 0.000000 0.000000
vt 0.000000 0.000000
vt 0.000000 0.000000
vt 0.000000 0.000000
vt 0.000000 0.000000
vt 0.000000 0.000000
vt 0.000000 0.000000
vt 0.000000 0.000000
vt 0.000000 0.000000
vt 0.000000 0.000000
vt 0.000000 0.000000
vt 0.000000 0.000000
vt 0.000000 0.000000
vt 0.000000 0.000000
vt 0.000000 0.000000
vt 0.000000 0.000000
vt 0.000000 0.000000
vt 0.000000 0.000000
vt 0.000000 0.000000
vt 0.000000 0.000000
vt 0.000000 0.000000
vt 0.000000 0.000000
vt 0.000000 0.000000
vt 0.000000 0.000000
vt 0.000000 0.000000
vt 0.000000 0.000000
vt 0.000000 0.000000
vt 0.000000 0.000000
vt 0.000000 0.000000
vt 0.000000 0.000000
vt 0.000000 0.000000
vt 0.000000 0.000000
vt 0.000000 0.000000
vt 0.000000 0.000000
vt 0.000000 0.000000
vt 0.000000 0.000000
vt 0.000000 0.000000
vt 0.000000 0.000000
vt 0.000000 0.000000
vt 0.000000 0.000000
vt 0.000000 0.000000
vt 0.000000 0.000000
vt 0.000000 0.000000
vt 0.000000 0.000000
vt 0.000000 0.000000
vt 0.000000 0.000000
vt 0.000000 0.000000
vt 0.000000 0.000000
vt 0.000000 0.000000
vt 0.000000 0.000000
vt 0.000000 0.000000
vt 0.000000 0.000000
vt 0.000000 0.000000
vt 0.000000 0.000000
vt 0.000000 0.000000
vt 0.000000 0.000000
vt 0.000000 0.000000
vt 0.000000 0.000000
vt 0.000000 0.000000
vt 0.000000 0.000000
vt 0.000000 0.000000
vt 0.000000 0.000000
vt 0.000000 0.000000
vt 0.000000 0.000000
vt 0.000000 0.000000
vt 0.000000 0.000000
vt 0.000000 0.000000
vt 0.000000 0.000000
vt 0.000000 0.000000
vt 0.000000 0.000000
vt 0.000000 0.000000
vt 0.000000 0.000000
vt 0.000000 0.000000
vt 0.000000 0.000000
vt 0.000000 0.000000
vt 0.000000 0.000000
vt 0.000000 0.000000
vt 0.000000 0.000000
vt 0.000000 0.000000
vt 0.000000 0.000000
vt 0.000000 0.000000
vt 0.000000 0.000000
vt 0.000000 0.000000
vt 0.000000 0.000000
vt 0.000000 0.000000
vt 0.000000 0.000000
vt 0.000000 0.000000
vt 0.000000 0.000000
vt 0.000000 0.000000
vt 0.000000 0.000000
vt 0.000000 0.000000
vt 0.000000 0.000000
vt 0.000000 0.000000
vt 0.000000 0.000000
vt 0.000000 0.000000
vt 0.000000 0.000000
vt 0.000000 0.000000
vt 0.000000 0.000000
vt 0.000000 0.000000
vt 0.000000 0.000000
vt 0.000000 0.000000
vt 0.000000 0.000000
vt 0.000000 0.000000
vt 0.000000 0.000000
vt 0.000000 0.000000
vt 0.000000 0.000000
vt 0.000000 0.000000
vt 0.000000 0.000000
vt 0.000000 0.000000
vt 0.000000 0.000000
vt 0.000000 0.000000
vt 0.000000 0.000000
vt 0.000000 0.000000
vt 0.000000 0.000000
vt 0.000000 0.000000
vt 0.000000 0.000000
vt 0.000000 0.000000
vt 0.000000 0.000000
vt 0.000000 0.000000
vt 0.000000 0.000000
vt 0.000000 0.000000
vt 0.000000 0.000000
vt 0.000000 0.000000
vt 0.000000 0.000000
vt 0.000000 0.000000
vn -0.7071 0.0000 0.7071
vn -0.1564 0.0000 -0.9877
vn 0.9877 0.0000 -0.1564
vn -0.4540 0.0000 0.8910
vn -0.4540 0.0000 -0.8910
vn 0.8910 0.0000 -0.4540
vn -0.1564 0.0000 0.9877
vn -0.7071 0.0000 -0.7071
vn 0.7071 0.0000 -0.7071
vn 0.1564 0.0000 0.9877
vn -0.8910 0.0000 -0.4540
vn 0.4540 0.0000 -0.8910
vn 0.4540 0.0000 0.8910
vn -0.9877 0.0000 -0.1564
vn 0.1564 0.0000 -0.9877
vn 0.7071 0.0000 0.7071
vn -0.9877 0.0000 0.1564
vn 0.8910 0.0000 0.4540
vn -0.8910 0.0000 0.4540
vn 0.9877 0.0000 0.1564
vn 0.0000 -1.0000 0.0000
vn 0.0000 1.0000 0.0000
vn -0.7582 0.5253 0.3863
vn 0.8405 0.5253 0.1331
vn -0.6017 0.5253 0.6017
vn -0.1331 0.5253 -0.8405
vn 0.8405 0.5253 -0.1331
vn -0.3863 0.5253 0.7582
vn -0.3863 0.5253 -0.7582
vn 0.7582 0.5253 -0.3863
vn -0.1331 0.5253 0.8405
vn -0.6017 0.5253 -0.6017
vn 0.6017 0.5253 -0.6017
vn 0.1331 0.5253 0.8405
vn -0.7582 0.5253 -0.3863
vn 0.3863 0.5253 -0.7582
vn 0.3863 0.5253 0.7582
vn -0.8405 0.5253 -0.1331
vn 0.1331 0.5253 -0.8405
vn 0.6017 0.5253 0.6017
vn -0.8405 0.5253 0.1331
vn 0.7582 0.5253 0.3863
vn -0.7582 -0.5253 -0.3863
vn 0.3863 -0.5253 -0.7582
vn 0.3863 -0.5253 0.7582
vn -0.8405 -0.5253 -0.1331
vn 0.1331 -0.5253 -0.8405
vn 0.6017 -0.5253 0.6017
vn -0.8405 -0.5253 0.1331
vn 0.7582 -0.5253 0.3863
vn -0.7582 -0.5253 0.3863
vn 0.8405 -0.5253 0.1331
vn -0.6017 -0.5253 0.6017
vn -0.1331 -0.5253 -0.8405
vn 0.8405 -0.5253 -0.1331
vn -0.3863 -0.5253 0.7582
vn -0.3863 -0.5253 -0.7582
vn 0.7582 -0.5253 -0.3863
vn -0.1331 -0.5253 0.8405
vn -0.6017 -0.5253 -0.6017
vn 0.6017 -0.5253 -0.6017
vn 0.1331 -0.5253 0.8405
f 31/1/1 10/2/1 11/3/1
f 24/4/2 3/5/2 4/6/2
f 39/7/3 18/8/3 19/9/3
f 32/10/4 11/3/4 12/11/4
f 25/12/5 4/6/5 5/13/5
f 40/14/6 19/9/6 20/15/6
f 33/16/7 12/11/7 13/17/7
f 26/18/8 5/13/8 6/19/8
f 41/20/9 20/15/9 21/21/9
f 34/22/10 13/17/10 14/23/10
f 27/24/11 6/19/11 7/25/11
f 42/26/12 21/21/12 22/27/12
f 35/28/13 14/23/13 15/29/13
f 28/30/14 7/25/14 8/31/14
f 23/32/15 22/27/15 3/5/15
f 36/33/16 15/29/16 16/34/16
f 29/35/17 8/31/17 9/36/17
f 37/37/18 16/34/18 17/38/18
f 30/39/19 9/36/19 10/2/19
f 38/40/20 17/38/20 18/8/20
f 50/41/1 66/42/1 67/43/1
f 43/44/2 74/45/2 75/46/2
f 58/47/3 82/48/3 83/49/3
f 51/50/4 90/51/4 66/42/4
f 44/52/5 94/53/5 74/45/5
f 59/54/6 98/55/6 82/48/6
f 52/56/7 102/57/7 90/51/7
f 45/58/8 106/59/8 94/53/8
f 60/60/9 110/61/9 98/55/9
f 53/62/10 114/63/10 102/57/10
f 46/64/11 118/65/11 106/59/11
f 61/66/12 122/67/12 110/61/12
f 54/68/13 126/69/13 114/63/13
f 47/70/14 130/71/14 118/65/14
f 62/72/15 75/46/15 122/67/15
f 55/73/16 134/74/16 126/69/16
f 48/75/17 138/76/17 130/71/17
f 56/77/18 142/78/18 134/74/18
f 49/79/19 67/43/19 138/76/19
f 57/80/20 83/49/20 142/78/20
f 139/81/20 18/8/20 17/38/20
f 141/82/20 85/83/20 140/84/20
f 135/85/19 10/2/19 9/36/19
f 137/86/19 69/87/19 136/88/19
f 131/89/18 17/38/18 16/34/18
f 133/90/18 140/84/18 132/91/18
f 127/92/17 9/36/17 8/31/17
f 129/93/17 136/88/17 128/94/17
f 123/95/16 16/34/16 15/29/16
f 125/96/16 132/91/16 124/97/16
f 119/98/15 3/5/15 22/27/15
f 121/99/15 77/100/15 120/101/15
f 115/102/14 8/31/14 7/25/14
f 117/103/14 128/94/14 116/104/14
f 111/105/13 15/29/13 14/23/13
f 113/106/13 124/97/13 112/107/13
f 107/108/12 22/27/12 21/21/12
f 109/109/12 120/101/12 108/110/12
f 103/111/11 7/25/11 6/19/11
f 105/112/11 116/104/11 104/113/11
f 99/114/10 14/23/10 13/17/10
f 101/115/10 112/107/10 100/116/10
f 95/117/9 21/21/9 20/15/9
f 97/118/9 108/110/9 96/119/9
f 91/120/8 6/19/8 5/13/8
f 93/121/8 104/113/8 92/122/8
f 87/123/7 13/17/7 12/11/7
f 89/124/7 100/116/7 88/125/7
f 79/126/6 20/15/6 19/9/6
f 81/127/6 96/119/6 80/128/6
f 71/129/5 5/13/5 4/6/5
f 73/130/5 92/122/5 72/131/5
f 63/132/4 12/11/4 11/3/4
f 65/133/4 88/125/4 64/134/4
f 86/135/3 19/9/3 18/8/3
f 84/136/3 80/128/3 85/83/3
f 78/137/2 4/6/2 3/5/2
f 76/138/2 72/131/2 77/100/2
f 70/139/1 11/3/1 10/2/1
f 68/140/1 64/134/1 69/87/1
f 99/114/21 143/141/21 111/105/21
f 91/120/21 143/141/21 103/111/21
f 135/85/21 143/141/21 70/139/21
f 79/126/21 143/141/21 95/117/21
f 127/92/21 143/141/21 135/85/21
f 63/132/21 143/141/21 87/123/21
f 119/98/21 143/141/21 78/137/21
f 78/137/21 143/141/21 71/129/21
f 111/105/21 143/141/21 123/95/21
f 103/111/21 143/141/21 115/102/21
f 95/117/21 143/141/21 107/108/21
f 139/81/21 143/141/21 86/135/21
f 87/123/21 143/141/21 99/114/21
f 131/89/21 143/141/21 139/81/21
f 71/129/21 143/141/21 91/120/21
f 123/95/21 143/141/21 131/89/21
f 86/135/21 143/141/21 79/126/21
f 115/102/21 143/141/21 127/92/21
f 70/139/21 143/141/21 63/132/21
f 107/108/21 143/141/21 119/98/21
f 128/94/22 144/142/22 116/104/22
f 64/134/22 144/142/22 69/87/22
f 120/101/22 144/142/22 108/110/22
f 112/107/22 144/142/22 100/116/22
f 104/113/22 144/142/22 92/122/22
f 69/87/22 144/142/22 136/88/22
f 96/119/22 144/142/22 80/128/22
f 136/88/22 144/142/22 128/94/22
f 88/125/22 144/142/22 64/134/22
f 77/100/22 144/142/22 120/101/22
f 72/131/22 144/142/22 77/100/22
f 124/97/22 144/142/22 112/107/22
f 116/104/22 144/142/22 104/113/22
f 108/110/22 144/142/22 96/119/22
f 85/83/22 144/142/22 140/84/22
f 100/116/22 144/142/22 88/125/22
f 140/84/22 144/142/22 132/91/22
f 92/122/22 144/142/22 72/131/22
f 132/91/22 144/142/22 124/97/22
f 80/128/22 144/142/22 85/83/22
f 73/130/21 145/143/21 93/121/21
f 125/96/21 145/143/21 133/90/21
f 84/136/21 145/143/21 81/127/21
f 117/103/21 145/143/21 129/93/21
f 68/140/21 145/143/21 65/133/21
f 109/109/21 145/143/21 121/99/21
f 101/115/21 145/143/21 113/106/21
f 93/121/21 145/143/21 105/112/21
f 137/86/21 145/143/21 68/140/21
f 81/127/21 145/143/21 97/118/21
f 129/93/21 145/143/21 137/86/21
f 65/133/21 145/143/21 89/124/21
f 121/99/21 145/143/21 76/138/21
f 76/138/21 145/143/21 73/130/21
f 113/106/21 145/143/21 125/96/21
f 105/112/21 145/143/21 117/103/21
f 97/118/21 145/143/21 109/109/21
f 141/82/21 145/143/21 84/136/21
f 89/124/21 145/143/21 101/115/21
f 133/90/21 145/143/21 141/82/21
f 83/49/22 146/144/22 142/78/22
f 102/57/22 146/144/22 90/51/22
f 142/78/22 146/144/22 134/74/22
f 94/53/22 146/144/22 74/45/22
f 134/74/22 146/144/22 126/69/22
f 82/48/22 146/144/22 83/49/22
f 130/71/22 146/144/22 118/65/22
f 66/42/22 146/144/22 67/43/22
f 122/67/22 146/144/22 110/61/22
f 114/63/22 146/144/22 102/57/22
f 106/59/22 146/144/22 94/53/22
f 67/43/22 146/144/22 138/76/22
f 98/55/22 146/144/22 82/48/22
f 138/76/22 146/144/22 130/71/22
f 90/51/22 146/144/22 66/42/22
f 75/46/22 146/144/22 122/67/22
f 74/45/22 146/144/22 75/46/22
f 126/69/22 146/144/22 114/63/22
f 118/65/22 146/144/22 106/59/22
f 110/61/22 146/144/22 98/55/22
f 158/145/21 33/16/21 34/22/21
f 27/24/21 150/146/21 26/18/21
f 166/147/21 41/20/21 42/26/21
f 159/148/21 34/22/21 35/28/21
f 152/149/21 27/24/21 28/30/21
f 147/150/21 42/26/21 23/32/21
f 160/151/21 35/28/21 36/33/21
f 153/152/21 28/30/21 29/35/21
f 161/153/21 36/33/21 37/37/21
f 30/39/21 153/152/21 29/35/21
f 162/154/21 37/37/21 38/40/21
f 31/1/21 154/155/21 30/39/21
f 24/4/21 147/150/21 23/32/21
f 163/156/21 38/40/21 39/7/21
f 156/157/21 31/1/21 32/10/21
f 149/158/21 24/4/21 25/12/21
f 164/159/21 39/7/21 40/14/21
f 33/16/21 156/157/21 32/10/21
f 26/18/21 149/158/21 25/12/21
f 165/160/21 40/14/21 41/20/21
f 154/155/23 167/161/23 153/152/23
f 162/154/24 167/161/24 161/153/24
f 155/162/25 167/161/25 154/155/25
f 148/163/26 167/161/26 147/150/26
f 163/156/27 167/161/27 162/154/27
f 156/157/28 167/161/28 155/162/28
f 149/158/29 167/161/29 148/163/29
f 164/159/30 167/161/30 163/156/30
f 157/164/31 167/161/31 156/157/31
f 150/146/32 167/161/32 149/158/32
f 165/160/33 167/161/33 164/159/33
f 158/145/34 167/161/34 157/164/34
f 151/165/35 167/161/35 150/146/35
f 166/147/36 167/161/36 165/160/36
f 159/148/37 167/161/37 158/145/37
f 152/149/38 167/161/38 151/165/38
f 147/150/39 167/161/39 166/147/39
f 160/151/40 167/161/40 159/148/40
f 153/152/41 167/161/41 152/149/41
f 161/153/42 167/161/42 160/151/42
f 175/166/22 51/50/22 50/41/22
f 168/167/22 44/52/22 43/44/22
f 58/47/22 184/168/22 59/54/22
f 176/169/22 52/56/22 51/50/22
f 169/170/22 45/58/22 44/52/22
f 59/54/22 185/171/22 60/60/22
f 177/172/22 53/62/22 52/56/22
f 170/173/22 46/64/22 45/58/22
f 60/60/22 186/174/22 61/66/22
f 178/175/22 54/68/22 53/62/22
f 171/176/22 47/70/22 46/64/22
f 61/66/22 187/177/22 62/72/22
f 179/178/22 55/73/22 54/68/22
f 47/70/22 173/179/22 48/75/22
f 187/177/22 43/44/22 62/72/22
f 55/73/22 181/180/22 56/77/22
f 173/179/22 49/79/22 48/75/22
f 56/77/22 182/181/22 57/80/22
f 174/182/22 50/41/22 49/79/22
f 57/80/22 183/183/22 58/47/22
f 171/176/43 188/184/43 172/185/43
f 186/174/44 188/184/44 187/177/44
f 179/178/45 188/184/45 180/186/45
f 172/185/46 188/184/46 173/179/46
f 187/177/47 188/184/47 168/167/47
f 180/186/48 188/184/48 181/180/48
f 173/179/49 188/184/49 174/182/49
f 181/180/50 188/184/50 182/181/50
f 174/182/51 188/184/51 175/166/51
f 182/181/52 188/184/52 183/183/52
f 175/166/53 188/184/53 176/169/53
f 168/167/54 188/184/54 169/170/54
f 183/183/55 188/184/55 184/168/55
f 176/169/56 188/184/56 177/172/56
f 169/170/57 188/184/57 170/173/57
f 184/168/58 188/184/58 185/171/58
f 177/172/59 188/184/59 178/175/59
f 170/173/60 188/184/60 171/176/60
f 185/171/61 188/184/61 186/174/61
f 178/175/62 188/184/62 179/178/62
f 31/1/1 30/39/1 10/2/1
f 24/4/2 23/32/2 3/5/2
f 39/7/3 38/40/3 18/8/3
f 32/10/4 31/1/4 11/3/4
f 25/12/5 24/4/5 4/6/5
f 40/14/6 39/7/6 19/9/6
f 33/16/7 32/10/7 12/11/7
f 26/18/8 25/12/8 5/13/8
f 41/20/9 40/14/9 20/15/9
f 34/22/10 33/16/10 13/17/10
f 27/24/11 26/18/11 6/19/11
f 42/26/12 41/20/12 21/21/12
f 35/28/13 34/22/13 14/23/13
f 28/30/14 27/24/14 7/25/14
f 23/32/15 42/26/15 22/27/15
f 36/33/16 35/28/16 15/29/16
f 29/35/17 28/30/17 8/31/17
f 37/37/18 36/33/18 16/34/18
f 30/39/19 29/35/19 9/36/19
f 38/40/20 37/37/20 17/38/20
f 50/41/1 51/50/1 66/42/1
f 43/44/2 44/52/2 74/45/2
f 58/47/3 59/54/3 82/48/3
f 51/50/4 52/56/4 90/51/4
f 44/52/5 45/58/5 94/53/5
f 59/54/6 60/60/6 98/55/6
f 52/56/7 53/62/7 102/57/7
f 45/58/8 46/64/8 106/59/8
f 60/60/9 61/66/9 110/61/9
f 53/62/10 54/68/10 114/63/10
f 46/64/11 47/70/11 118/65/11
f 61/66/12 62/72/12 122/67/12
f 54/68/13 55/73/13 126/69/13
f 47/70/14 48/75/14 130/71/14
f 62/72/15 43/44/15 75/46/15
f 55/73/16 56/77/16 134/74/16
f 48/75/17 49/79/17 138/76/17
f 56/77/18 57/80/18 142/78/18
f 49/79/19 50/41/19 67/43/19
f 57/80/20 58/47/20 83/49/20
f 139/81/20 86/135/20 18/8/20
f 141/82/20 84/136/20 85/83/20
f 135/85/19 70/139/19 10/2/19
f 137/86/19 68/140/19 69/87/19
f 131/89/18 139/81/18 17/38/18
f 133/90/18 141/82/18 140/84/18
f 127/92/17 135/85/17 9/36/17
f 129/93/17 137/86/17 136/88/17
f 123/95/16 131/89/16 16/34/16
f 125/96/16 133/90/16 132/91/16
f 119/98/15 78/137/15 3/5/15
f 121/99/15 76/138/15 77/100/15
f 115/102/14 127/92/14 8/31/14
f 117/103/14 129/93/14 128/94/14
f 111/105/13 123/95/13 15/29/13
f 113/106/13 125/96/13 124/97/13
f 107/108/12 119/98/12 22/27/12
f 109/109/12 121/99/12 120/101/12
f 103/111/11 115/102/11 7/25/11
f 105/112/11 117/103/11 116/104/11
f 99/114/10 111/105/10 14/23/10
f 101/115/10 113/106/10 112/107/10
f 95/117/9 107/108/9 21/21/9
f 97/118/9 109/109/9 108/110/9
f 91/120/8 103/111/8 6/19/8
f 93/121/8 105/112/8 104/113/8
f 87/123/7 99/114/7 13/17/7
f 89/124/7 101/115/7 100/116/7
f 79/126/6 95/117/6 20/15/6
f 81/127/6 97/118/6 96/119/6
f 71/129/5 91/120/5 5/13/5
f 73/130/5 93/121/5 92/122/5
f 63/132/4 87/123/4 12/11/4
f 65/133/4 89/124/4 88/125/4
f 86/135/3 79/126/3 19/9/3
f 84/136/3 81/127/3 80/128/3
f 78/137/2 71/129/2 4/6/2
f 76/138/2 73/130/2 72/131/2
f 70/139/1 63/132/1 11/3/1
f 68/140/1 65/133/1 64/134/1
f 158/145/21 157/164/21 33/16/21
f 27/24/21 151/165/21 150/146/21
f 166/147/21 165/160/21 41/20/21
f 159/148/21 158/145/21 34/22/21
f 152/149/21 151/165/21 27/24/21
f 147/150/21 166/147/21 42/26/21
f 160/151/21 159/148/21 35/28/21
f 153/152/21 152/149/21 28/30/21
f 161/153/21 160/151/21 36/33/21
f 30/39/21 154/155/21 153/152/21
f 162/154/21 161/153/21 37/37/21
f 31/1/21 155/162/21 154/155/21
f 24/4/21 148/163/21 147/150/21
f 163/156/21 162/154/21 38/40/21
f 156/157/21 155/162/21 31/1/21
f 149/158/21 148/163/21 24/4/21
f 164/159/21 163/156/21 39/7/21
f 33/16/21 157/164/21 156/157/21
f 26/18/21 150/146/21 149/158/21
f 165/160/21 164/159/21 40/14/21
f 175/166/22 176/169/22 51/50/22
f 168/167/22 169/170/22 44/52/22
f 58/47/22 183/183/22 184/168/22
f 176/169/22 177/172/22 52/56/22
f 169/170/22 170/173/22 45/58/22
f 59/54/22 184/168/22 185/171/22
f 177/172/22 178/175/22 53/62/22
f 170/173/22 171/176/22 46/64/22
f 60/60/22 185/171/22 186/174/22
f 178/175/22 179/178/22 54/68/22
f 171/176/22 172/185/22 47/70/22
f 61/66/22 186/174/22 187/177/22
f 179/178/22 180/186/22 55/73/22
f 47/70/22 172/185/22 173/179/22
f 187/177/22 168/167/22 43/44/22
f 55/73/22 180/186/22 181/180/22
f 173/179/22 174/182/22 49/79/22
f 56/77/22 181/180/22 182/181/22
f 174/182/22 175/166/22 50/41/22
f 57/80/22 182/181/22 183/183/22
